<svg height="480" node-id="1" sillyvg="true" template-height="480" template-width="480" version="1.1" viewBox="0 0 480 480" width="480" xmlns="http://www.w3.org/2000/svg" xmlns:xlink="http://www.w3.org/1999/xlink"><defs node-id="49"><linearGradient gradientUnits="objectBoundingBox" id="linearGradient-2" node-id="9" spreadMethod="pad" x1="0" x2="1" y1="0.5" y2="0.5"><stop offset="0" stop-color="#fff2e6"/><stop offset="1" stop-color="#ffd9c3"/></linearGradient><linearGradient gradientUnits="objectBoundingBox" id="linearGradient-7" node-id="22" spreadMethod="pad" x1="0" x2="1" y1="1" y2="1"><stop offset="0" stop-color="#1eaefb"/><stop offset="1" stop-color="#4169fc"/></linearGradient><linearGradient gradientUnits="objectBoundingBox" id="linearGradient-8" node-id="25" spreadMethod="pad" x1="0" x2="0.6361689" y1="0.38835678" y2="0.5"><stop offset="0" stop-color="#b2dfff"/><stop offset="1" stop-color="#406afb"/></linearGradient><filter height="7" id="filter-1" node-id="7" width="1.217" x="-0.109" y="-3"><feGaussianBlur color-interpolation-filters="linearRGB" in="SourceGraphic" result="result1" stdDeviation="8 8"></feGaussianBlur></filter><filter height="1.391" id="filter-4" node-id="13" width="1.13" x="-0.065" y="-0.149"><feOffset color-interpolation-filters="linearRGB" dx="0" dy="4" in="SourceAlpha" result="shadowOffsetOuter1"></feOffset><feGaussianBlur color-interpolation-filters="linearRGB" in="shadowOffsetOuter1" result="shadowBlurOuter1" stdDeviation="5 5"></feGaussianBlur><feColorMatrix color-interpolation-filters="linearRGB" in="shadowBlurOuter1" result="result3" type="matrix" values="0 0 0 0 0 0 0 0 0 0 0 0 0 0 0 0 0 0 0.12262347 0"></feColorMatrix></filter><filter height="1.176" id="filter-6" node-id="18" width="1.131" x="-0.066" y="-0.044"><feOffset color-interpolation-filters="linearRGB" dx="0" dy="4" in="SourceAlpha" result="shadowOffsetOuter1"></feOffset><feGaussianBlur color-interpolation-filters="linearRGB" in="shadowOffsetOuter1" result="shadowBlurOuter1" stdDeviation="2 2"></feGaussianBlur><feColorMatrix color-interpolation-filters="linearRGB" in="shadowBlurOuter1" result="result3" type="matrix" values="0 0 0 0 0.592156863 0 0 0 0 0.756862745 0 0 0 0 0.964705882 0 0 0 1 0"></feColorMatrix></filter></defs><g node-id="126"><g node-id="127"><g node-id="128"><path d="M 132.00 95.00 L 358.00 95.00 L 359.83 95.17 L 361.50 95.63 L 363.05 96.37 L 364.45 97.36 L 365.64 98.55 L 366.63 99.95 L 367.37 101.50 L 367.83 103.17 L 368.00 105.00 L 368.00 109.00 L 367.83 110.83 L 367.37 112.50 L 366.63 114.05 L 365.64 115.45 L 364.45 116.64 L 363.05 117.63 L 361.50 118.37 L 359.83 118.83 L 358.00 119.00 L 132.00 119.00 L 130.17 118.83 L 128.50 118.37 L 126.95 117.63 L 125.55 116.64 L 124.36 115.45 L 123.37 114.05 L 122.63 112.50 L 122.17 110.83 L 122.00 109.00 L 122.00 105.00 L 122.17 103.17 L 122.63 101.50 L 123.37 99.95 L 124.36 98.55 L 125.55 97.36 L 126.95 96.37 L 128.50 95.63 L 130.17 95.17 L 132.00 95.00 Z" fill="#eeeeee" fill-rule="evenodd" group-id="1,2,3" id="矩形" node-id="32" stroke="none" target-height="24" target-width="246" target-x="122" target-y="95"/><path d="M 104.00 144.00 L 376.00 144.00 L 377.83 144.17 L 379.50 144.63 L 381.05 145.37 L 382.45 146.36 L 383.64 147.55 L 384.63 148.95 L 385.37 150.50 L 385.83 152.17 L 386.00 154.00 L 386.00 157.00 L 385.83 158.83 L 385.37 160.50 L 384.63 162.05 L 383.64 163.45 L 382.45 164.64 L 381.05 165.63 L 379.50 166.37 L 377.83 166.83 L 376.00 167.00 L 104.00 167.00 L 102.17 166.83 L 100.50 166.37 L 98.95 165.63 L 97.55 164.64 L 96.36 163.45 L 95.37 162.05 L 94.63 160.50 L 94.17 158.83 L 94.00 157.00 L 94.00 154.00 L 94.17 152.17 L 94.63 150.50 L 95.37 148.95 L 96.36 147.55 L 97.55 146.36 L 98.95 145.37 L 100.50 144.63 L 102.17 144.17 L 104.00 144.00 Z" fill="#eeeeee" fill-rule="evenodd" group-id="1,2,3" id="矩形备份" node-id="33" stroke="none" target-height="23" target-width="292" target-x="94" target-y="144"/><path d="M 106.00 247.00 L 377.00 247.00 L 378.83 247.17 L 380.50 247.63 L 382.05 248.37 L 383.45 249.36 L 384.64 250.55 L 385.63 251.95 L 386.37 253.50 L 386.83 255.17 L 387.00 257.00 L 387.00 260.00 L 386.83 261.83 L 386.37 263.50 L 385.63 265.05 L 384.64 266.45 L 383.45 267.64 L 382.05 268.63 L 380.50 269.37 L 378.83 269.83 L 377.00 270.00 L 106.00 270.00 L 104.17 269.83 L 102.50 269.37 L 100.95 268.63 L 99.55 267.64 L 98.36 266.45 L 97.37 265.05 L 96.63 263.50 L 96.17 261.83 L 96.00 260.00 L 96.00 257.00 L 96.17 255.17 L 96.63 253.50 L 97.37 251.95 L 98.36 250.55 L 99.55 249.36 L 100.95 248.37 L 102.50 247.63 L 104.17 247.17 L 106.00 247.00 Z" fill="#eeeeee" fill-rule="evenodd" group-id="1,2,3" id="矩形备份-2" node-id="34" stroke="none" target-height="23" target-width="291" target-x="96" target-y="247"/><path d="M 85.00 194.00 L 394.00 194.00 L 395.83 194.17 L 397.50 194.63 L 399.05 195.37 L 400.45 196.36 L 401.64 197.55 L 402.63 198.95 L 403.37 200.50 L 403.83 202.17 L 404.00 204.00 L 404.00 207.00 L 403.83 208.83 L 403.37 210.50 L 402.63 212.05 L 401.64 213.45 L 400.45 214.64 L 399.05 215.63 L 397.50 216.37 L 395.83 216.83 L 394.00 217.00 L 85.00 217.00 L 83.17 216.83 L 81.50 216.37 L 79.95 215.63 L 78.55 214.64 L 77.36 213.45 L 76.37 212.05 L 75.63 210.50 L 75.17 208.83 L 75.00 207.00 L 75.00 204.00 L 75.17 202.17 L 75.63 200.50 L 76.37 198.95 L 77.36 197.55 L 78.55 196.36 L 79.95 195.37 L 81.50 194.63 L 83.17 194.17 L 85.00 194.00 Z" fill="#eeeeee" fill-rule="evenodd" group-id="1,2,3" id="矩形备份-3" node-id="35" stroke="none" target-height="23" target-width="329" target-x="75" target-y="194"/><path d="M 132.00 296.00 L 347.00 296.00 L 348.83 296.17 L 350.50 296.63 L 352.05 297.37 L 353.45 298.36 L 354.64 299.55 L 355.63 300.95 L 356.37 302.50 L 356.83 304.17 L 357.00 306.00 L 357.00 310.00 L 356.83 311.83 L 356.37 313.50 L 355.63 315.05 L 354.64 316.45 L 353.45 317.64 L 352.05 318.63 L 350.50 319.37 L 348.83 319.83 L 347.00 320.00 L 132.00 320.00 L 130.17 319.83 L 128.50 319.37 L 126.95 318.63 L 125.55 317.64 L 124.36 316.45 L 123.37 315.05 L 122.63 313.50 L 122.17 311.83 L 122.00 310.00 L 122.00 306.00 L 122.17 304.17 L 122.63 302.50 L 123.37 300.95 L 124.36 299.55 L 125.55 298.36 L 126.95 297.37 L 128.50 296.63 L 130.17 296.17 L 132.00 296.00 Z" fill="#eeeeee" fill-rule="evenodd" group-id="1,2,3" id="矩形备份-5" node-id="36" stroke="none" target-height="24" target-width="235" target-x="122" target-y="296"/><g node-id="131"><path d="M 350.00 381.00 L 349.72 381.28 L 348.32 381.70 L 344.37 382.26 L 338.23 382.80 L 328.68 383.36 L 304.76 384.23 L 274.43 384.80 L 239.50 385.00 L 204.57 384.80 L 174.24 384.23 L 150.32 383.36 L 140.77 382.80 L 134.63 382.26 L 130.68 381.70 L 129.28 381.28 L 129.00 381.00 L 129.28 380.72 L 130.68 380.30 L 134.63 379.74 L 140.77 379.20 L 150.32 378.64 L 174.24 377.77 L 204.57 377.20 L 239.50 377.00 L 274.43 377.20 L 304.76 377.77 L 328.68 378.64 L 338.23 379.20 L 344.37 379.74 L 348.32 380.30 L 349.72 380.72 L 350.00 381.00 Z" fill="#3d3d3d" fill-opacity="0.4" fill-rule="evenodd" filter="url(#filter-1)" group-id="1,2,3,6" id="椭圆形" node-id="37" stroke="none" target-height="8" target-width="221" target-x="129" target-y="377"/></g></g><g node-id="129"><g node-id="132"><path d="M 290.09 245.81 L 393.00 259.58 L 280.66 318.00 L 280.66 292.46 L 131.00 299.51 L 153.01 231.00 L 280.66 259.58 Z" fill="#000000" fill-rule="evenodd" filter="url(#filter-4)" group-id="1,2,4,7" hidden="true" node-id="107" stroke="none" target-height="87" target-width="262" target-x="131" target-y="231" visibility="hidden"/></g><path d="M 290.09 245.81 L 393.00 259.58 L 280.66 318.00 L 280.66 292.46 L 131.00 299.51 L 153.01 231.00 L 280.66 259.58 Z" fill="url(#linearGradient-2)" fill-rule="evenodd" group-id="1,2,4,8" hidden="true" node-id="112" stroke="none" target-height="87" target-width="262" target-x="131" target-y="231" visibility="hidden"/></g><g node-id="130"><g node-id="134"><path d="M 128.00 143.00 L 234.00 143.00 L 236.14 143.29 L 238.04 144.09 L 239.66 145.34 L 240.91 146.96 L 241.71 148.86 L 242.00 151.00 L 242.00 226.00 L 241.71 228.14 L 240.91 230.04 L 239.66 231.66 L 238.04 232.91 L 236.14 233.71 L 234.00 234.00 L 128.00 234.00 L 125.86 233.71 L 123.96 232.91 L 122.34 231.66 L 121.09 230.04 L 120.29 228.14 L 120.00 226.00 L 120.00 151.00 L 120.29 148.86 L 121.09 146.96 L 122.34 145.34 L 123.96 144.09 L 125.86 143.29 L 128.00 143.00 Z" fill="#000000" fill-rule="evenodd" filter="url(#filter-6)" group-id="1,2,5,9" node-id="119" stroke="none" target-height="91" target-width="122" target-x="120" target-y="143"/></g><path d="M 128.00 143.00 L 234.00 143.00 L 236.14 143.29 L 238.04 144.09 L 239.66 145.34 L 240.91 146.96 L 241.71 148.86 L 242.00 151.00 L 242.00 226.00 L 241.71 228.14 L 240.91 230.04 L 239.66 231.66 L 238.04 232.91 L 236.14 233.71 L 234.00 234.00 L 128.00 234.00 L 125.86 233.71 L 123.96 232.91 L 122.34 231.66 L 121.09 230.04 L 120.29 228.14 L 120.00 226.00 L 120.00 151.00 L 120.29 148.86 L 121.09 146.96 L 122.34 145.34 L 123.96 144.09 L 125.86 143.29 L 128.00 143.00 Z" fill="#b2dfff" fill-rule="evenodd" group-id="1,2,5,10" node-id="124" stroke="none" target-height="91" target-width="122" target-x="120" target-y="143"/></g><path d="M 151.00 164.00 L 283.00 164.00 L 285.14 164.29 L 287.04 165.09 L 288.66 166.34 L 289.91 167.96 L 290.71 169.86 L 291.00 172.00 L 291.00 267.00 L 290.71 269.14 L 289.91 271.04 L 288.66 272.66 L 287.04 273.91 L 285.14 274.71 L 283.00 275.00 L 151.00 275.00 L 148.86 274.71 L 146.96 273.91 L 145.34 272.66 L 144.09 271.04 L 143.29 269.14 L 143.00 267.00 L 143.00 172.00 L 143.29 169.86 L 144.09 167.96 L 145.34 166.34 L 146.96 165.09 L 148.86 164.29 L 151.00 164.00 Z" fill="url(#linearGradient-7)" fill-rule="evenodd" group-id="1,2" id="矩形" node-id="44" stroke="none" target-height="111" target-width="148" target-x="143" target-y="164"/><path d="M 298.00 262.00 L 297.73 265.85 L 297.00 269.47 L 295.80 272.90 L 294.17 276.15 L 292.17 279.11 L 289.80 281.80 L 287.11 284.17 L 284.15 286.17 L 280.90 287.80 L 277.47 289.00 L 273.85 289.73 L 270.00 290.00 L 266.15 289.73 L 262.53 289.00 L 259.10 287.80 L 255.85 286.17 L 252.89 284.17 L 250.20 281.80 L 247.83 279.11 L 245.83 276.15 L 244.20 272.90 L 243.00 269.47 L 242.27 265.85 L 242.00 262.00 L 242.27 258.15 L 243.00 254.53 L 244.20 251.10 L 245.83 247.85 L 247.83 244.89 L 250.20 242.20 L 252.89 239.83 L 255.85 237.83 L 259.10 236.20 L 262.53 235.00 L 266.15 234.27 L 270.00 234.00 L 273.85 234.27 L 277.47 235.00 L 280.90 236.20 L 284.15 237.83 L 287.11 239.83 L 289.80 242.20 L 292.17 244.89 L 294.17 247.85 L 295.80 251.10 L 297.00 254.53 L 297.73 258.15 L 298.00 262.00 Z" fill="url(#linearGradient-8)" fill-rule="evenodd" group-id="1,2" id="椭圆形" node-id="45" stroke="none" target-height="56" target-width="56" target-x="242" target-y="234"/><path d="M 213.00 241.00 L 214.57 241.32 L 215.83 242.17 L 216.68 243.43 L 217.00 245.00 L 217.00 246.00 L 216.68 247.57 L 215.83 248.83 L 214.57 249.68 L 213.00 250.00 L 173.00 250.00 L 171.43 249.68 L 170.17 248.83 L 169.32 247.57 L 169.00 246.00 L 169.00 245.00 L 169.32 243.43 L 170.17 242.17 L 171.43 241.32 L 173.00 241.00 L 213.00 241.00 Z M 234.00 214.00 L 235.57 214.32 L 236.83 215.17 L 237.68 216.43 L 238.00 218.00 L 238.00 219.00 L 237.68 220.57 L 236.83 221.83 L 235.57 222.68 L 234.00 223.00 L 173.00 223.00 L 171.43 222.68 L 170.17 221.83 L 169.32 220.57 L 169.00 219.00 L 169.00 218.00 L 169.32 216.43 L 170.17 215.17 L 171.43 214.32 L 173.00 214.00 L 234.00 214.00 Z M 249.00 189.00 L 250.57 189.32 L 251.83 190.17 L 252.68 191.43 L 253.00 193.00 L 253.00 194.00 L 252.68 195.57 L 251.83 196.83 L 250.57 197.68 L 249.00 198.00 L 173.00 198.00 L 171.43 197.68 L 170.17 196.83 L 169.32 195.57 L 169.00 194.00 L 169.00 193.00 L 169.32 191.43 L 170.17 190.17 L 171.43 189.32 L 173.00 189.00 L 249.00 189.00 Z" fill="#b2dfff" fill-rule="evenodd" group-id="1,2" id="形状结合" node-id="46" stroke="none" target-height="61" target-width="84" target-x="169" target-y="189"/><path d="M 255.98 261.51 L 260.74 264.23 L 265.47 267.28 L 268.50 264.34 L 273.36 259.74 L 278.94 254.85 L 281.75 252.65 L 284.15 251.02 L 284.63 251.52 L 284.79 251.69 L 285.23 252.39 L 281.25 256.79 L 278.80 259.86 L 275.49 264.41 L 271.96 269.67 L 267.30 277.08 L 263.09 272.87 L 261.08 270.84 L 260.23 269.95 L 259.46 269.16 L 257.72 267.44 L 253.95 263.76 L 255.02 262.45 L 255.98 261.51 Z" fill="#ffffff" fill-rule="evenodd" group-id="1,2" id="路径" node-id="47" stroke="none" target-height="26.060852" target-width="31.275528" target-x="253.95204" target-y="251.01572"/></g></g></svg>
